<svg xmlns="http://www.w3.org/2000/svg" xmlns:xlink="http://www.w3.org/1999/xlink" viewBox="0,0,256,256" width="192px" height="192px" fill-rule="nonzero"><defs><linearGradient x1="36.737" y1="11.263" x2="8.263" y2="39.737" gradientUnits="userSpaceOnUse" id="color-1"><stop offset="0" stop-color="#f6a690" stop-opacity="0.78039"></stop><stop offset="0.033" stop-color="#6ab4fe"></stop><stop offset="0.197" stop-color="#97cbfe"></stop><stop offset="0.362" stop-color="#bddeff"></stop><stop offset="0.525" stop-color="#daecff"></stop><stop offset="0.687" stop-color="#eef7ff"></stop><stop offset="0.846" stop-color="#fbfdff"></stop><stop offset="1" stop-color="#ffffff"></stop></linearGradient></defs><g transform=""><g fill="none" fill-rule="nonzero" stroke="none" stroke-width="none" stroke-linecap="none" stroke-linejoin="none" stroke-miterlimit="10" stroke-dasharray="" stroke-dashoffset="0" font-family="none" font-weight="none" font-size="none" text-anchor="none" style="mix-blend-mode: normal"><path transform="scale(5.33333,5.33333)" d="M6.5,15.5c0,-3.314 2.686,-6 6,-6h18l-3,-3h14v14l-3,-3v18c0,3.314 -2.686,6 -6,6h-20c-3.314,0 -6,-2.686 -6,-6z" id="strokeMainSVG" fill="#f6a690" stroke="#f6a690" stroke-width="7" stroke-linecap="butt" stroke-linejoin="round"></path><g transform="scale(5.33333,5.33333)"><path d="M32.48,41.5h-19.96c-3.325,0 -6.02,-2.695 -6.02,-6.02v-19.96c0,-3.325 2.695,-6.02 6.02,-6.02h19.96c3.325,0 6.02,2.695 6.02,6.02v19.96c0,3.325 -2.695,6.02 -6.02,6.02z" fill="url(#color-1)" stroke="none" stroke-width="1" stroke-linecap="butt" stroke-linejoin="miter"></path><path d="M6.5,20.5v-5c0,-3.314 2.686,-6 6,-6h10" fill="none" stroke="#2e9bfe" stroke-width="3" stroke-linecap="round" stroke-linejoin="round"></path><path d="M38.5,25.5v10c0,3.314 -2.686,6 -6,6h-20c-3.314,0 -6,-2.686 -6,-6v-6.968" fill="none" stroke="#2e9bfe" stroke-width="3" stroke-linecap="round" stroke-linejoin="round"></path><path d="M23.5,24.5l18,-18" fill="none" stroke="#2e9bfe" stroke-width="3" stroke-linecap="round" stroke-linejoin="round"></path><path d="M27.5,6.5h14v14" fill="none" stroke="#2e9bfe" stroke-width="3" stroke-linecap="round" stroke-linejoin="round"></path></g></g></g></svg>